<mxfile host="Electron" modified="2023-05-27T05:49:27.914Z" agent="Mozilla/5.0 (X11; Linux x86_64) AppleWebKit/537.36 (KHTML, like Gecko) draw.io/21.2.8 Chrome/112.0.5615.165 Electron/24.2.0 Safari/537.36" etag="IOj84AbRg5vYeDQULqfE" version="21.2.8" type="device">
  <diagram id="D1HtAhjjhCdzmTIrUNiw" name="Page-1">
    <mxGraphModel dx="299" dy="175" grid="1" gridSize="10" guides="1" tooltips="1" connect="1" arrows="1" fold="1" page="1" pageScale="1" pageWidth="1100" pageHeight="850" math="0" shadow="0">
      <root>
        <mxCell id="0" />
        <mxCell id="1" parent="0" />
        <mxCell id="Ah5QmYgok2Lmbro061cM-27" value="" style="rounded=1;whiteSpace=wrap;html=1;strokeWidth=1;fontFamily=Times New Roman;fontSize=17;align=left;verticalAlign=top;spacingRight=0;spacingLeft=12;spacingTop=5;spacing=0;absoluteArcSize=1;arcSize=15;fontStyle=2;shadow=0;sketch=0;strokeColor=#3F90DA;fillColor=#ECF1F8;" parent="1" vertex="1">
          <mxGeometry x="385" y="360" width="190" height="60" as="geometry" />
        </mxCell>
        <mxCell id="Ah5QmYgok2Lmbro061cM-26" value="" style="rounded=1;whiteSpace=wrap;html=1;strokeWidth=1;fontFamily=Times New Roman;fontSize=17;align=left;verticalAlign=top;spacingRight=0;spacingLeft=12;spacingTop=5;spacing=0;absoluteArcSize=1;arcSize=15;fontStyle=2;shadow=0;sketch=0;strokeColor=#3F90DA;fillColor=#ECF1F8;" parent="1" vertex="1">
          <mxGeometry x="180" y="360" width="55" height="60" as="geometry" />
        </mxCell>
        <mxCell id="Ah5QmYgok2Lmbro061cM-24" value="" style="rounded=1;whiteSpace=wrap;html=1;strokeWidth=1;fontFamily=Times New Roman;fontSize=17;align=left;verticalAlign=top;spacingRight=0;spacingLeft=12;spacingTop=5;spacing=0;absoluteArcSize=1;arcSize=15;fontStyle=2;shadow=0;sketch=0;strokeColor=#3F90DA;fillColor=#ECF1F8;" parent="1" vertex="1">
          <mxGeometry x="180" y="290" width="195" height="60" as="geometry" />
        </mxCell>
        <mxCell id="HOQ9eJgj0v2eyHVtLmr2-1" value="" style="endArrow=classic;startArrow=classic;html=1;" parent="1" edge="1">
          <mxGeometry width="50" height="50" relative="1" as="geometry">
            <mxPoint x="120" y="160" as="sourcePoint" />
            <mxPoint x="1000" y="160" as="targetPoint" />
          </mxGeometry>
        </mxCell>
        <mxCell id="HOQ9eJgj0v2eyHVtLmr2-7" value="Text width (approx.)" style="edgeLabel;html=1;align=center;verticalAlign=middle;resizable=0;points=[];fontSize=17;fontFamily=Times New Roman;" parent="HOQ9eJgj0v2eyHVtLmr2-1" vertex="1" connectable="0">
          <mxGeometry x="0.5095" relative="1" as="geometry">
            <mxPoint x="-224.17" as="offset" />
          </mxGeometry>
        </mxCell>
        <mxCell id="HOQ9eJgj0v2eyHVtLmr2-2" value="" style="endArrow=classic;startArrow=classic;html=1;" parent="1" edge="1">
          <mxGeometry width="50" height="50" relative="1" as="geometry">
            <mxPoint x="120" y="200" as="sourcePoint" />
            <mxPoint x="560" y="200" as="targetPoint" />
          </mxGeometry>
        </mxCell>
        <mxCell id="HOQ9eJgj0v2eyHVtLmr2-6" value="Line width (approx.)" style="edgeLabel;html=1;align=center;verticalAlign=middle;resizable=0;points=[];fontSize=17;fontFamily=Times New Roman;spacingLeft=0;" parent="HOQ9eJgj0v2eyHVtLmr2-2" vertex="1" connectable="0">
          <mxGeometry x="0.0379" y="-1" relative="1" as="geometry">
            <mxPoint x="-8.33" as="offset" />
          </mxGeometry>
        </mxCell>
        <mxCell id="HOQ9eJgj0v2eyHVtLmr2-10" value="Text format: Times New Roman 17 pt" style="text;html=1;strokeColor=none;fillColor=none;align=left;verticalAlign=middle;whiteSpace=wrap;rounded=0;fontFamily=Times New Roman;fontSize=17;" parent="1" vertex="1">
          <mxGeometry x="120" y="30" width="280" height="20" as="geometry" />
        </mxCell>
        <mxCell id="HOQ9eJgj0v2eyHVtLmr2-24" value="Bold colors:" style="text;html=1;strokeColor=none;fillColor=none;align=left;verticalAlign=middle;whiteSpace=wrap;rounded=0;fontFamily=Times New Roman;fontSize=17;" parent="1" vertex="1">
          <mxGeometry x="120" y="70" width="100" height="20" as="geometry" />
        </mxCell>
        <mxCell id="HOQ9eJgj0v2eyHVtLmr2-25" value="" style="rounded=0;whiteSpace=wrap;html=1;fontFamily=Times New Roman;fontSize=17;align=center;strokeColor=none;fillColor=#3f90da;" parent="1" vertex="1">
          <mxGeometry x="230" y="70" width="20" height="20" as="geometry" />
        </mxCell>
        <mxCell id="HOQ9eJgj0v2eyHVtLmr2-26" value="" style="rounded=0;whiteSpace=wrap;html=1;fontFamily=Times New Roman;fontSize=17;align=center;strokeColor=none;fillColor=#ffa90e;" parent="1" vertex="1">
          <mxGeometry x="350" y="70" width="20" height="20" as="geometry" />
        </mxCell>
        <mxCell id="HOQ9eJgj0v2eyHVtLmr2-27" value="" style="rounded=0;whiteSpace=wrap;html=1;fontFamily=Times New Roman;fontSize=17;align=center;strokeColor=none;fillColor=#bd1f01;" parent="1" vertex="1">
          <mxGeometry x="470" y="70" width="20" height="20" as="geometry" />
        </mxCell>
        <mxCell id="HOQ9eJgj0v2eyHVtLmr2-28" value="" style="rounded=0;whiteSpace=wrap;html=1;fontFamily=Times New Roman;fontSize=17;align=center;strokeColor=none;fillColor=#94A4A2;" parent="1" vertex="1">
          <mxGeometry x="590" y="70" width="20" height="20" as="geometry" />
        </mxCell>
        <mxCell id="HOQ9eJgj0v2eyHVtLmr2-29" value="&lt;span style=&quot;text-align: left&quot;&gt;#94A4A2&lt;/span&gt;" style="text;html=1;strokeColor=none;fillColor=none;align=center;verticalAlign=middle;whiteSpace=wrap;rounded=0;fontFamily=Courier New;fontSize=17;" parent="1" vertex="1">
          <mxGeometry x="610" y="70" width="80" height="20" as="geometry" />
        </mxCell>
        <mxCell id="HOQ9eJgj0v2eyHVtLmr2-30" value="&lt;span style=&quot;text-align: left&quot;&gt;#BD1F01&lt;/span&gt;" style="text;html=1;strokeColor=none;fillColor=none;align=center;verticalAlign=middle;whiteSpace=wrap;rounded=0;fontFamily=Courier New;fontSize=17;" parent="1" vertex="1">
          <mxGeometry x="490" y="70" width="80" height="20" as="geometry" />
        </mxCell>
        <mxCell id="HOQ9eJgj0v2eyHVtLmr2-31" value="&lt;span style=&quot;text-align: left&quot;&gt;#FFA90E&lt;/span&gt;" style="text;html=1;strokeColor=none;fillColor=none;align=center;verticalAlign=middle;whiteSpace=wrap;rounded=0;fontFamily=Courier New;fontSize=17;" parent="1" vertex="1">
          <mxGeometry x="370" y="70" width="80" height="20" as="geometry" />
        </mxCell>
        <mxCell id="HOQ9eJgj0v2eyHVtLmr2-32" value="&lt;span style=&quot;text-align: left&quot;&gt;#3F90DA&lt;/span&gt;" style="text;html=1;strokeColor=none;fillColor=none;align=center;verticalAlign=middle;whiteSpace=wrap;rounded=0;fontFamily=Courier New;fontSize=17;" parent="1" vertex="1">
          <mxGeometry x="250" y="70" width="80" height="20" as="geometry" />
        </mxCell>
        <mxCell id="HOQ9eJgj0v2eyHVtLmr2-33" value="Light colors:" style="text;html=1;strokeColor=none;fillColor=none;align=left;verticalAlign=middle;whiteSpace=wrap;rounded=0;fontFamily=Times New Roman;fontSize=17;" parent="1" vertex="1">
          <mxGeometry x="120" y="110" width="100" height="20" as="geometry" />
        </mxCell>
        <mxCell id="HOQ9eJgj0v2eyHVtLmr2-34" value="" style="rounded=0;whiteSpace=wrap;html=1;fontFamily=Times New Roman;fontSize=17;align=center;strokeColor=none;fillColor=#ecf1f8;" parent="1" vertex="1">
          <mxGeometry x="230" y="110" width="20" height="20" as="geometry" />
        </mxCell>
        <mxCell id="HOQ9eJgj0v2eyHVtLmr2-35" value="" style="rounded=0;whiteSpace=wrap;html=1;fontFamily=Times New Roman;fontSize=17;align=center;strokeColor=none;fillColor=#fff5e5;" parent="1" vertex="1">
          <mxGeometry x="350" y="110" width="20" height="20" as="geometry" />
        </mxCell>
        <mxCell id="HOQ9eJgj0v2eyHVtLmr2-36" value="" style="rounded=0;whiteSpace=wrap;html=1;fontFamily=Times New Roman;fontSize=17;align=center;strokeColor=none;fillColor=#ffece9;" parent="1" vertex="1">
          <mxGeometry x="470" y="110" width="20" height="20" as="geometry" />
        </mxCell>
        <mxCell id="HOQ9eJgj0v2eyHVtLmr2-37" value="" style="rounded=0;whiteSpace=wrap;html=1;fontFamily=Times New Roman;fontSize=17;align=center;strokeColor=none;fillColor=#F2F4F4;" parent="1" vertex="1">
          <mxGeometry x="590" y="110" width="20" height="20" as="geometry" />
        </mxCell>
        <mxCell id="HOQ9eJgj0v2eyHVtLmr2-38" value="&lt;span style=&quot;text-align: left&quot;&gt;#&lt;/span&gt;F2F4F4" style="text;html=1;strokeColor=none;fillColor=none;align=center;verticalAlign=middle;whiteSpace=wrap;rounded=0;fontFamily=Courier New;fontSize=17;" parent="1" vertex="1">
          <mxGeometry x="610" y="110" width="80" height="20" as="geometry" />
        </mxCell>
        <mxCell id="HOQ9eJgj0v2eyHVtLmr2-39" value="&lt;span style=&quot;text-align: left&quot;&gt;#&lt;/span&gt;FFECE9" style="text;html=1;strokeColor=none;fillColor=none;align=center;verticalAlign=middle;whiteSpace=wrap;rounded=0;fontFamily=Courier New;fontSize=17;" parent="1" vertex="1">
          <mxGeometry x="490" y="110" width="80" height="20" as="geometry" />
        </mxCell>
        <mxCell id="HOQ9eJgj0v2eyHVtLmr2-40" value="&lt;span style=&quot;text-align: left&quot;&gt;#&lt;/span&gt;FFF5E5" style="text;html=1;strokeColor=none;fillColor=none;align=center;verticalAlign=middle;whiteSpace=wrap;rounded=0;fontFamily=Courier New;fontSize=17;" parent="1" vertex="1">
          <mxGeometry x="370" y="110" width="80" height="20" as="geometry" />
        </mxCell>
        <mxCell id="HOQ9eJgj0v2eyHVtLmr2-41" value="&lt;span style=&quot;text-align: left&quot;&gt;#&lt;/span&gt;ECF1F8" style="text;html=1;strokeColor=none;fillColor=none;align=center;verticalAlign=middle;whiteSpace=wrap;rounded=0;fontFamily=Courier New;fontSize=17;" parent="1" vertex="1">
          <mxGeometry x="250" y="110" width="80" height="20" as="geometry" />
        </mxCell>
        <mxCell id="PxhoU1N86w6rkpq-SPUx-25" value="" style="rounded=0;whiteSpace=wrap;html=1;fontFamily=Times New Roman;fontSize=17;align=center;strokeColor=none;fillColor=#832DB6;" parent="1" vertex="1">
          <mxGeometry x="710" y="70" width="20" height="20" as="geometry" />
        </mxCell>
        <mxCell id="PxhoU1N86w6rkpq-SPUx-26" value="&lt;span style=&quot;text-align: left&quot;&gt;#&lt;/span&gt;832DB6" style="text;html=1;strokeColor=none;fillColor=none;align=center;verticalAlign=middle;whiteSpace=wrap;rounded=0;fontFamily=Courier New;fontSize=17;" parent="1" vertex="1">
          <mxGeometry x="730" y="70" width="80" height="20" as="geometry" />
        </mxCell>
        <mxCell id="PxhoU1N86w6rkpq-SPUx-27" value="" style="rounded=0;whiteSpace=wrap;html=1;fontFamily=Times New Roman;fontSize=17;align=center;strokeColor=none;fillColor=#FBF0FF;" parent="1" vertex="1">
          <mxGeometry x="710" y="110" width="20" height="20" as="geometry" />
        </mxCell>
        <mxCell id="PxhoU1N86w6rkpq-SPUx-28" value="&lt;span style=&quot;text-align: left&quot;&gt;#&lt;/span&gt;FBF0FF" style="text;html=1;strokeColor=none;fillColor=none;align=center;verticalAlign=middle;whiteSpace=wrap;rounded=0;fontFamily=Courier New;fontSize=17;" parent="1" vertex="1">
          <mxGeometry x="730" y="110" width="80" height="20" as="geometry" />
        </mxCell>
        <mxCell id="Ah5QmYgok2Lmbro061cM-1" value="" style="endArrow=none;html=1;exitX=1;exitY=0.5;exitDx=0;exitDy=0;" parent="1" edge="1">
          <mxGeometry width="50" height="50" relative="1" as="geometry">
            <mxPoint x="275" y="320" as="sourcePoint" />
            <mxPoint x="320" y="320" as="targetPoint" />
          </mxGeometry>
        </mxCell>
        <mxCell id="Ah5QmYgok2Lmbro061cM-4" value="" style="endArrow=none;html=1;exitX=1;exitY=0.5;exitDx=0;exitDy=0;" parent="1" edge="1">
          <mxGeometry width="50" height="50" relative="1" as="geometry">
            <mxPoint x="170" y="390" as="sourcePoint" />
            <mxPoint x="490" y="390" as="targetPoint" />
          </mxGeometry>
        </mxCell>
        <mxCell id="Ah5QmYgok2Lmbro061cM-7" value="&lt;i&gt;f&lt;/i&gt; (θ)" style="rounded=0;whiteSpace=wrap;html=1;strokeWidth=1;fontFamily=Times New Roman;fontSize=17;align=center;spacing=0;horizontal=1;" parent="1" vertex="1">
          <mxGeometry x="235" y="300" width="45" height="40" as="geometry" />
        </mxCell>
        <mxCell id="Ah5QmYgok2Lmbro061cM-9" value="" style="endArrow=none;html=1;exitX=1;exitY=0.5;exitDx=0;exitDy=0;" parent="1" target="Ah5QmYgok2Lmbro061cM-7" edge="1">
          <mxGeometry width="50" height="50" relative="1" as="geometry">
            <mxPoint x="170" y="320" as="sourcePoint" />
            <mxPoint x="410" y="320" as="targetPoint" />
          </mxGeometry>
        </mxCell>
        <mxCell id="3X6UR7vebm-MhE1ssPxp-2" value="Entangle" style="rounded=0;whiteSpace=wrap;html=1;strokeWidth=1;fontFamily=Times New Roman;fontSize=17;align=center;spacing=0;horizontal=0;" parent="1" vertex="1">
          <mxGeometry x="190" y="300" width="35" height="110" as="geometry" />
        </mxCell>
        <mxCell id="Ah5QmYgok2Lmbro061cM-13" value="" style="endArrow=none;html=1;exitX=1;exitY=0.5;exitDx=0;exitDy=0;shape=link;" parent="1" edge="1">
          <mxGeometry width="50" height="50" relative="1" as="geometry">
            <mxPoint x="315" y="320" as="sourcePoint" />
            <mxPoint x="345" y="320" as="targetPoint" />
          </mxGeometry>
        </mxCell>
        <mxCell id="Ah5QmYgok2Lmbro061cM-12" value="" style="group" parent="1" vertex="1" connectable="0">
          <mxGeometry x="290" y="300" width="45" height="47" as="geometry" />
        </mxCell>
        <mxCell id="Ah5QmYgok2Lmbro061cM-8" value="" style="rounded=0;whiteSpace=wrap;html=1;strokeWidth=1;fontFamily=Times New Roman;fontSize=17;align=center;spacing=0;horizontal=1;" parent="Ah5QmYgok2Lmbro061cM-12" vertex="1">
          <mxGeometry width="45" height="40" as="geometry" />
        </mxCell>
        <mxCell id="Ah5QmYgok2Lmbro061cM-10" value="" style="verticalLabelPosition=bottom;verticalAlign=top;html=1;shape=mxgraph.basic.arc;startAngle=0.7547732166712652;endAngle=0.24188688466388786;" parent="Ah5QmYgok2Lmbro061cM-12" vertex="1">
          <mxGeometry x="6.749999999999999" y="17" width="31.49999999999999" height="30" as="geometry" />
        </mxCell>
        <mxCell id="Ah5QmYgok2Lmbro061cM-11" value="" style="endArrow=classic;html=1;" parent="Ah5QmYgok2Lmbro061cM-12" edge="1">
          <mxGeometry width="50" height="50" relative="1" as="geometry">
            <mxPoint x="17.999999999999996" y="32" as="sourcePoint" />
            <mxPoint x="29.699999999999996" y="4.5" as="targetPoint" />
          </mxGeometry>
        </mxCell>
        <mxCell id="Ah5QmYgok2Lmbro061cM-14" value="&lt;i&gt;m&lt;/i&gt;&lt;sub&gt;c&lt;/sub&gt;" style="text;html=1;strokeColor=none;fillColor=none;align=center;verticalAlign=middle;whiteSpace=wrap;rounded=0;fontFamily=Times New Roman;fontSize=17;spacing=0;" parent="1" vertex="1">
          <mxGeometry x="350" y="309" width="20" height="20" as="geometry" />
        </mxCell>
        <mxCell id="Ah5QmYgok2Lmbro061cM-15" value="&lt;i&gt;f&lt;/i&gt; (θ, α, &lt;i&gt;m&lt;/i&gt;&lt;sub&gt;c&lt;/sub&gt;)" style="rounded=0;whiteSpace=wrap;html=1;strokeWidth=1;fontFamily=Times New Roman;fontSize=17;align=center;spacing=0;horizontal=1;spacingLeft=2;" parent="1" vertex="1">
          <mxGeometry x="395" y="370" width="85" height="40" as="geometry" />
        </mxCell>
        <mxCell id="Ah5QmYgok2Lmbro061cM-18" value="" style="endArrow=none;html=1;exitX=1;exitY=0.5;exitDx=0;exitDy=0;shape=link;" parent="1" edge="1">
          <mxGeometry width="50" height="50" relative="1" as="geometry">
            <mxPoint x="515" y="390" as="sourcePoint" />
            <mxPoint x="545" y="390" as="targetPoint" />
          </mxGeometry>
        </mxCell>
        <mxCell id="Ah5QmYgok2Lmbro061cM-19" value="" style="group" parent="1" vertex="1" connectable="0">
          <mxGeometry x="490" y="370" width="45" height="47" as="geometry" />
        </mxCell>
        <mxCell id="Ah5QmYgok2Lmbro061cM-20" value="" style="rounded=0;whiteSpace=wrap;html=1;strokeWidth=1;fontFamily=Times New Roman;fontSize=17;align=center;spacing=0;horizontal=1;" parent="Ah5QmYgok2Lmbro061cM-19" vertex="1">
          <mxGeometry width="45" height="40" as="geometry" />
        </mxCell>
        <mxCell id="Ah5QmYgok2Lmbro061cM-21" value="" style="verticalLabelPosition=bottom;verticalAlign=top;html=1;shape=mxgraph.basic.arc;startAngle=0.7547732166712652;endAngle=0.24188688466388786;" parent="Ah5QmYgok2Lmbro061cM-19" vertex="1">
          <mxGeometry x="6.749999999999999" y="17" width="31.49999999999999" height="30" as="geometry" />
        </mxCell>
        <mxCell id="Ah5QmYgok2Lmbro061cM-22" value="" style="endArrow=classic;html=1;" parent="Ah5QmYgok2Lmbro061cM-19" edge="1">
          <mxGeometry width="50" height="50" relative="1" as="geometry">
            <mxPoint x="17.999999999999996" y="32" as="sourcePoint" />
            <mxPoint x="29.699999999999996" y="4.5" as="targetPoint" />
          </mxGeometry>
        </mxCell>
        <mxCell id="Ah5QmYgok2Lmbro061cM-23" value="&lt;i&gt;m&lt;/i&gt;&lt;sub&gt;s&lt;/sub&gt;" style="text;html=1;strokeColor=none;fillColor=none;align=center;verticalAlign=middle;whiteSpace=wrap;rounded=0;fontFamily=Times New Roman;fontSize=17;spacing=0;" parent="1" vertex="1">
          <mxGeometry x="550" y="379" width="20" height="20" as="geometry" />
        </mxCell>
        <mxCell id="IhRu-FzHTKQNtjjLyS4j-2" value="Client" style="text;html=1;strokeColor=none;fillColor=none;align=left;verticalAlign=middle;whiteSpace=wrap;rounded=0;fontFamily=Times New Roman;fontSize=17;spacing=0;" parent="1" vertex="1">
          <mxGeometry x="120" y="310" width="50" height="20" as="geometry" />
        </mxCell>
        <mxCell id="IhRu-FzHTKQNtjjLyS4j-3" value="Server" style="text;html=1;strokeColor=none;fillColor=none;align=left;verticalAlign=middle;whiteSpace=wrap;rounded=0;fontFamily=Times New Roman;fontSize=17;spacing=0;" parent="1" vertex="1">
          <mxGeometry x="120" y="380" width="50" height="20" as="geometry" />
        </mxCell>
        <mxCell id="IhRu-FzHTKQNtjjLyS4j-5" value="Wait for θ, α,&amp;nbsp;&lt;i&gt;m&lt;/i&gt;&lt;sub&gt;c&lt;/sub&gt;" style="rounded=1;whiteSpace=wrap;html=1;strokeWidth=1;fontFamily=Times New Roman;fontSize=17;align=center;verticalAlign=middle;spacingRight=0;spacingLeft=0;spacingTop=0;spacing=0;absoluteArcSize=1;arcSize=15;fontStyle=0;shadow=0;sketch=0;dashed=1;" parent="1" vertex="1">
          <mxGeometry x="245" y="360" width="130" height="60" as="geometry" />
        </mxCell>
      </root>
    </mxGraphModel>
  </diagram>
</mxfile>
